# xmcd CD database file
# Generated: Fri May 31 22:24:23 2002 by KSCD
# 
# Track frame offsets:
#       150
#       12277
#       26947
#       41147
#       52180
#       67482
#       79517
#       91180
#       103695
#       112472
#       124177
#       135145
#       143605
#       152602
#       167602
#       181660
#       193850
#       206990
#       218700
#       230857
#       244027
#       259432
#       273852
#       286617
#       294410
#       303757
#       312042
#       321907
#       336977
#
# Disc length: 4600 seconds
#
# Revision: 1
# Processed by: cddbd v1.4PL0 Copyright (c) Steve Scherf et al.
# Submitted via: Kscd 1.3.2
#
DISCID=b311f61d
DTITLE=Bill Clifton - Around The World To Poor Valley 3
DYEAR=1900
DGENRE=
TTITLE0=Stern Old Bachelor
TTITLE1=I'll Be All Smiles Tonight
TTITLE2=My Clinch Mountain Home
TTITLE3=Cannonball Blues
TTITLE4=I'll Be All Smiles Tonight
TTITLE5=My Clinch Mountain Home
TTITLE6=March Winds
TTITLE7=Bring Back My Blue Eyed Boy To Me
TTITLE8=I'm Rolling On
TTITLE9=No Hiding Place Down Here
TTITLE10=There's A Star Spangled Banner
TTITLE11=A White Cross Marks The Grave
TTITLE12=Spanish Flandang
TTITLE13=Jimmy Will Be Slain
TTITLE14=Drink Your Glasses Dry
TTITLE15=The Battle Of Quebec
TTITLE16=This Old Cold War
TTITLE17=The Sinking Of The Maine
TTITLE18=I Want To Go Home
TTITLE19=The Sailor On The Deep Blue Sea
TTITLE20=Faded Coat Of Blue
TTITLE21=Uniforms Of Grey
TTITLE22=Tim
TTITLE23=San Juan Hill
TTITLE24=The Marine's Hymn
TTITLE25=Uniforms Of Grey
TTITLE26=Volunteers March
TTITLE27=Standing Outside
TTITLE28=Columbus Stockade Blues
EXTD=null
EXTT0=null
EXTT1=null
EXTT2=null
EXTT3=null
EXTT4=null
EXTT5=null
EXTT6=null
EXTT7=null
EXTT8=null
EXTT9=null
EXTT10=null
EXTT11=null
EXTT12=null
EXTT13=null
EXTT14=null
EXTT15=null
EXTT16=null
EXTT17=null
EXTT18=null
EXTT19=null
EXTT20=null
EXTT21=null
EXTT22=null
EXTT23=null
EXTT24=null
EXTT25=null
EXTT26=null
EXTT27=null
EXTT28=null
PLAYORDER=
